<?xml version="1.0" encoding="UTF-8"?>
<svg width="24px" height="24px" viewBox="0 0 24 24" version="1.1" xmlns="http://www.w3.org/2000/svg" xmlns:xlink="http://www.w3.org/1999/xlink">
    <title>Iconly/Broken/Edit Square</title>
    <g id="Iconly/Broken/Edit-Square" stroke="none" stroke-width="1" fill="none" fill-rule="evenodd">
        <g id="Edit-Square" transform="translate(2.000000, 2.000000)" fill="#000000" fill-rule="nonzero">
            <path d="M19.2584876,9.40984115 C19.6651525,9.40984115 19.995693,9.73884608 19.995693,10.1458522 L19.995693,10.1458522 L19.995693,14.0999115 C19.995693,17.6289644 17.7219754,20 14.3364401,20 L14.3364401,20 L5.65825124,20 C2.27371753,20 -1.77635684e-14,17.6289644 -1.77635684e-14,14.0999115 C-1.77635684e-14,13.6939054 0.331542071,13.3639005 0.738206968,13.3639005 C1.1458735,13.3639005 1.47641394,13.6939054 1.47641394,14.0999115 C1.47641394,16.7899518 3.11709645,18.5269779 5.65825124,18.5269779 L5.65825124,18.5269779 L14.3364401,18.5269779 C16.8785965,18.5269779 18.5212823,16.7899518 18.5212823,14.0999115 L18.5212823,14.0999115 L18.5212823,10.1458522 C18.5212823,9.73884608 18.8508211,9.40984115 19.2584876,9.40984115 Z M17.7586265,0.766875408 L17.9005674,0.9000135 L19.0975245,2.09503143 C19.6804776,2.67604014 20,3.45005175 20,4.27006405 C20,5.02357535 19.7315124,5.73591243 19.2377421,6.29692721 L19.0975245,6.44609669 L11.7134515,13.8182073 C11.2199173,14.3109419 10.5790347,14.6020207 9.89089235,14.6508719 L9.68313192,14.6582199 L5.99710527,14.6582199 C5.79878101,14.6582199 5.60846985,14.5782187 5.46924221,14.4352165 C5.35866141,14.3216148 5.28846664,14.1766526 5.26686332,14.0218343 L5.25989994,13.9042086 L5.35305224,10.1941529 C5.37035325,9.52232465 5.61861039,8.88686058 6.05643367,8.38468174 L6.19342625,8.23812357 L13.5434435,0.9000135 C14.6982162,-0.253849962 16.5493938,-0.298229326 17.7586265,0.766875408 Z M14.7005393,1.83722133 L14.5861484,1.94102912 L13.9811592,2.54503818 L15.8552233,4.41606624 C16.1426933,4.70407056 16.1426933,5.16907754 15.8552233,5.45808187 C15.7109875,5.60108402 15.5216779,5.6730851 15.3333701,5.6730851 C15.1819224,5.6730851 15.0311159,5.62700441 14.9030024,5.53535503 L14.8115168,5.45808187 L12.9384544,3.58605379 L7.23713271,9.27913919 C7.01820333,9.49685674 6.88095853,9.77702421 6.83990599,10.078708 L6.8274629,10.2311535 L6.75434335,13.1851978 L9.68313192,13.1851978 C10.0025112,13.1851978 10.3057008,13.0794003 10.5523315,12.8829192 L10.6707467,12.7771917 L18.0548196,5.40508108 C18.6440183,4.81589577 18.678677,3.88035232 18.1587959,3.25125272 L18.0548196,3.13704706 L16.8578626,1.94102912 C16.2677213,1.352785 15.3306597,1.3181824 14.7005393,1.83722133 Z M9.33546348,0.0379005685 C9.74313002,0.0379005685 10.0736705,0.367905519 10.0736705,0.773911609 C10.0736705,1.18091771 9.74313002,1.50992265 9.33546348,1.50992265 L9.33546348,1.50992265 L5.65845157,1.50992265 C3.11729678,1.50992265 1.47561263,3.24794872 1.47561263,5.93798907 L1.47561263,5.93798907 L1.47561263,9.70704561 C1.47561263,10.1130517 1.14507219,10.4430566 0.738407296,10.4430566 C0.330740761,10.4430566 0.000200327536,10.1130517 0.000200327536,9.70704561 L0.000200327536,9.70704561 L0.000200327536,5.93798907 C0.000200327536,2.40893613 2.27391786,0.0379005685 5.65845157,0.0379005685 L5.65845157,0.0379005685 Z"></path>
        </g>
    </g>
</svg>