<?xml version="1.0" encoding="UTF-8"?>
<svg width="24px" height="24px" viewBox="0 0 24 24" version="1.1" xmlns="http://www.w3.org/2000/svg" xmlns:xlink="http://www.w3.org/1999/xlink">
    <title>Iconly/Broken/Arrow - Down 2</title>
    <g id="Iconly/Broken/Arrow---Down-2" stroke="none" stroke-width="1" fill="none" fill-rule="evenodd">
        <path d="M4.24169001,7.7439969 C4.56321085,7.41941131 5.08444771,7.41718048 5.40596856,7.74622773 L5.40596856,7.74622773 L12.5825772,15.0722696 C12.904098,15.4002014 12.9030007,15.9300232 12.5803825,16.2557242 C12.4201707,16.4174593 12.2094813,16.5 11.9998892,16.5 C11.7881024,16.5 11.577413,16.4174593 11.4172013,16.2534934 L11.4172013,16.2534934 L4.24059266,8.92745159 C3.91907182,8.59951975 3.92016916,8.06969791 4.24169001,7.7439969 Z M18.592932,7.74633927 C18.9144528,7.41729202 19.4356897,7.41952285 19.7572105,7.74410844 C20.0798287,8.06980945 20.0809261,8.59963129 19.7605026,8.92756313 L19.7605026,8.92756313 L14.9947516,13.7930008 C14.8345399,13.9569667 14.6227531,14.0395074 14.4120637,14.0395074 C14.2024716,14.0395074 13.9917822,13.9569667 13.8315704,13.7952316 C13.5089522,13.4695306 13.5078549,12.9397088 13.8282784,12.6117769 L13.8282784,12.6117769 Z" id="Arrow---Down-2" fill="#000000" fill-rule="nonzero"></path>
    </g>
</svg>