<?xml version="1.0" encoding="UTF-8"?>
<svg width="24px" height="24px" viewBox="0 0 24 24" version="1.1" xmlns="http://www.w3.org/2000/svg" xmlns:xlink="http://www.w3.org/1999/xlink">
    <title>Iconly/Broken/Shield Fail</title>
    <g id="Iconly/Broken/Shield-Fail" stroke="none" stroke-width="1" fill="none" fill-rule="evenodd">
        <g id="Shield-Fail" transform="translate(3.500000, 2.000000)" fill="#000000" fill-rule="nonzero">
            <path d="M7.8846247,0.100497488 C8.28184019,-0.0334991625 8.71918886,-0.0334991625 9.11434625,0.100497488 L9.11434625,0.100497488 L15.7579298,2.36744081 C16.500908,2.62143446 17,3.30541736 17,4.07139822 L17,4.07139822 L17,10.7122322 C17,12.7251819 16.2518765,14.6741331 14.8945521,16.1950951 C14.2719734,16.8920777 13.4754843,17.4910627 12.4567191,18.0270493 L12.4567191,18.0270493 L8.86634383,19.9120022 C8.75417676,19.9700007 8.62966102,20 8.50617433,20 C8.38268765,20 8.25920097,19.9700007 8.1470339,19.9120022 L8.1470339,19.9120022 L4.54945521,18.0260493 C3.52863196,17.4890628 2.73008475,16.8900777 2.10956416,16.1960951 C0.750181598,14.6731332 4.79616347e-14,12.7231819 4.79616347e-14,10.7082323 C4.79616347e-14,10.3022424 0.339588378,9.97225069 0.757384988,9.97225069 C1.1751816,9.97225069 1.51476998,10.3022424 1.51476998,10.7082323 C1.51476998,12.3701907 2.13220339,13.9761506 3.25284504,15.2321192 C3.75193705,15.7911052 4.41156174,16.281093 5.26876513,16.7310817 L5.26876513,16.7310817 L8.50617433,18.4280393 L11.7363801,16.7320817 C12.5915254,16.2830929 13.2501211,15.7931052 13.7512712,15.2321192 C14.8698547,13.9771506 15.4862591,12.3731907 15.4862591,10.7122322 L15.4862591,10.7122322 L15.4862591,4.07139822 C15.4862591,3.92940176 15.3936441,3.80340491 15.2567797,3.75640609 L15.2567797,3.75640609 L8.61422518,1.48946276 C8.54116223,1.46446339 8.45986683,1.46446339 8.38577482,1.48946276 L8.38577482,1.48946276 L1.74424939,3.75640609 C1.60635593,3.80340491 1.51476998,3.92940176 1.51476998,4.07139822 L1.51476998,4.07139822 L1.51476998,5.97135072 C1.51476998,6.37834054 1.1751816,6.70833229 0.757384988,6.70833229 C0.339588378,6.70833229 4.79616347e-14,6.37834054 4.79616347e-14,5.97135072 L4.79616347e-14,5.97135072 L4.79616347e-14,4.07139822 C4.79616347e-14,3.30541736 0.500121065,2.62143446 1.24309927,2.36744081 L1.24309927,2.36744081 Z M6.05475787,7.43721407 C6.35112591,7.15022124 6.8296368,7.15022124 7.12497579,7.43721407 L7.12497579,7.43721407 L8.48641646,8.76118097 L9.84785714,7.43721407 C10.1431961,7.15022124 10.621707,7.15022124 10.9180751,7.43721407 C11.213414,7.72620684 11.213414,8.19019525 10.9180751,8.47718807 L10.9180751,8.47718807 L9.55663438,9.80115497 L10.9180751,11.1231219 C11.213414,11.4101147 11.213414,11.8761031 10.9180751,12.1630959 C10.769891,12.3070923 10.5764286,12.3790905 10.3829661,12.3790905 C10.1884746,12.3790905 9.99501211,12.3070923 9.84785714,12.1630959 L9.84785714,12.1630959 L8.48641646,10.841129 L7.12497579,12.1630959 C6.97679177,12.3070923 6.7833293,12.3790905 6.58986683,12.3790905 C6.39640436,12.3790905 6.20294189,12.3070923 6.05475787,12.1630959 C5.75941889,11.8761031 5.75941889,11.4101147 6.05475787,11.1231219 L6.05475787,11.1231219 L7.41619855,9.80115497 L6.05475787,8.47718807 C5.75941889,8.19019525 5.75941889,7.72620684 6.05475787,7.43721407 Z"></path>
        </g>
    </g>
</svg>