<?xml version="1.0" encoding="UTF-8"?>
<svg width="24px" height="24px" viewBox="0 0 24 24" version="1.1" xmlns="http://www.w3.org/2000/svg" xmlns:xlink="http://www.w3.org/1999/xlink">
    <title>Iconly/Broken/Swap</title>
    <g id="Iconly/Broken/Swap" stroke="none" stroke-width="1" fill="none" fill-rule="evenodd">
        <g id="Swap" transform="translate(2.500000, 3.000000)" fill="#000000" fill-rule="nonzero">
            <path d="M14.6731957,2.71272088 C15.1291365,2.71272088 15.4971852,3.08612346 15.4971852,3.54620877 L15.4971852,15.1483601 L17.5395807,13.0713083 C17.8603873,12.7456924 18.3822473,12.7445811 18.7052512,13.0690857 C19.0271565,13.3935903 19.0282551,13.921466 18.7074485,14.2481932 L15.2565803,17.7543989 C15.0994729,17.9155399 14.8885316,18 14.6731957,18 C14.5666263,18 14.460057,17.978885 14.358981,17.9366549 C14.0502596,17.8077421 13.8492061,17.5043525 13.8492061,17.1665121 L13.8492061,3.54620877 C13.8492061,3.08612346 14.2183534,2.71272088 14.6731957,2.71272088 Z M11.2256233,12.4814212 L12.8296564,14.1117235 C13.150463,14.4384507 13.1493643,14.965215 12.8263604,15.2897197 C12.6659571,15.451972 12.4550158,15.5330981 12.2451731,15.5330981 C12.0342318,15.5330981 11.8221918,15.451972 11.6606898,15.287497 L10.0566568,13.658306 C9.73585022,13.3315788 9.73694887,12.8037031 10.0599528,12.4791985 C10.381858,12.1546939 10.9026194,12.1546939 11.2256233,12.4814212 Z M5.44000812,0.245152219 L9.4720637,4.34035602 C9.79396895,4.66708327 9.7928703,5.19495893 9.46986639,5.51946355 C9.14686248,5.84396817 8.62610108,5.84396817 8.30529448,5.51724092 L5.68061307,2.85230232 L5.68061307,14.452231 C5.68061307,14.9123163 5.31146575,15.2857189 4.85662351,15.2857189 C4.40178127,15.2857189 4.03263395,14.9123163 4.03263395,14.452231 L4.03263395,0.833039007 C4.03263395,0.495198584 4.2336874,0.191808994 4.54240882,0.0628962013 C4.84893294,-0.0649052743 5.20489643,0.00510770803 5.44000812,0.245152219 Z M3.01044743,2.70849788 C3.33235269,3.03300249 3.33345134,3.56087815 3.01264474,3.88760541 L1.40751308,5.51679639 C1.24710978,5.68127133 1.0350698,5.76239749 0.82412847,5.76239749 C0.614285796,5.76239749 0.403344469,5.68127133 0.242941168,5.51901902 C-0.0800627397,5.19451441 -0.0811613924,4.66775006 0.240743862,4.34102281 L1.84477687,2.71072051 C2.16668213,2.38399326 2.68744353,2.38399326 3.01044743,2.70849788 Z"></path>
        </g>
    </g>
</svg>